# xmcd
#
# Track frame offsets:
#	150
#	15867
#	29550
#	44175
#	61680
#	77205
#	92345
#	105725
#	119502
#	132977
#	149072
#	163235
#	178357
#	191900
#	207862
#	223475
#	236852
#	251445
#	267127
#	282627
#
# Disc length: 3947
#
# Revision: 1
# Processed by: cddbd v1.5.1PL0 Copyright (c) Steve Scherf et al.
# Submitted via: audiograbber 1.83.01
# Normalized: r0:DSETVAR1
#
DISCID=400f6914
DTITLE=Various Artist - Das Beste 2000 - Volksmusik - CD1
DYEAR=2000
DGENRE=Volksmusik
TTITLE0=Oswald Sattler and Jantje Smit - Ich zeig' Dir die Berge
TTITLE1=Stephanie - Mein schönster Traum
TTITLE2=Rudy Giovanni - Amore, Amore
TTITLE3=Monika Martin - Schweige mein Herz
TTITLE4=Kastelruther Spatzen - Und ewig wird der Himmel brennen
TTITLE5=Edward Simoni - Jenny, kleine Jenny
TTITLE6=Raphael Haslinger - Heimat
TTITLE7=Die Edlseer - Weil i a Schürzenjäger bin
TTITLE8=Diana - Ein bisschen Sonnenschein
TTITLE9=Calimeros - Das war was wie Ewigkeit
TTITLE10=Klostertaler - Die längste Nacht der Welt
TTITLE11=Stefanie Hertel and Stefan Mross - Mambofieber
TTITLE12=Die Stoakogler - Boarisch geht's jetzt auf
TTITLE13=Francine Jordi - Wunschlos glücklich
TTITLE14=Alpentrio Tirol - Oh mi amor - das Leben hat mich wieder
TTITLE15=Zellberg Buam - Des isch bärig
TTITLE16=Axel Becker - Ich fühle wie du
TTITLE17=Duo Herzklang - Mit dir durch alle Jahreszeiten
TTITLE18=Wolfgang Edenharder - S'ganze Leben ist ein Theater
TTITLE19=Bergfeuer - Die Legende der Sierra
EXTD=
EXTT0=
EXTT1=
EXTT2=
EXTT3=
EXTT4=
EXTT5=
EXTT6=
EXTT7=
EXTT8=
EXTT9=
EXTT10=
EXTT11=
EXTT12=
EXTT13=
EXTT14=
EXTT15=
EXTT16=
EXTT17=
EXTT18=
EXTT19=
PLAYORDER=
